<svg xmlns="http://www.w3.org/2000/svg" width="1200" height="750" viewBox="0 0 1200 750">
  <defs>
    <linearGradient id="g" gradientTransform="rotate(149)">
      <stop offset="0%" stop-color="#C8A4C4"/>
      <stop offset="55%" stop-color="#9B8CC8"/>
      <stop offset="100%" stop-color="#7BBAD4"/>
    </linearGradient>
  </defs>
  <rect width="1200" height="750" fill="url(#g)"/>
  <circle cx="816" cy="507" r="316" fill="none" stroke="rgba(250,246,236,0.2)" stroke-width="1.5"/><circle cx="807" cy="251" r="377" fill="none" stroke="rgba(250,246,236,0.2)" stroke-width="1.5"/><circle cx="242" cy="175" r="380" fill="none" stroke="rgba(250,246,236,0.2)" stroke-width="1.5"/><polygon points="898,423 753,632 568,607 448,391 589,212 806,308" fill="#C8A4C4" opacity="0.35" stroke="rgba(250,246,236,0.5)" stroke-width="1.4"/>
  <circle cx="920" cy="310" r="1.0" fill="rgba(250,246,236,0.48)"/><circle cx="924" cy="228" r="1.0" fill="rgba(250,246,236,0.54)"/><circle cx="1168" cy="517" r="1.7" fill="rgba(250,246,236,0.25)"/><circle cx="910" cy="500" r="2.0" fill="rgba(250,246,236,0.51)"/><circle cx="292" cy="147" r="1.8" fill="rgba(250,246,236,0.49)"/><circle cx="640" cy="329" r="1.7" fill="rgba(250,246,236,0.41)"/><circle cx="439" cy="696" r="1.3" fill="rgba(250,246,236,0.16)"/><circle cx="36" cy="23" r="2.0" fill="rgba(250,246,236,0.50)"/><circle cx="214" cy="407" r="2.3" fill="rgba(250,246,236,0.39)"/><circle cx="267" cy="648" r="1.8" fill="rgba(250,246,236,0.42)"/><circle cx="103" cy="300" r="1.0" fill="rgba(250,246,236,0.17)"/><circle cx="811" cy="608" r="2.6" fill="rgba(250,246,236,0.23)"/><circle cx="70" cy="182" r="3.0" fill="rgba(250,246,236,0.30)"/><circle cx="30" cy="395" r="2.7" fill="rgba(250,246,236,0.18)"/><circle cx="1049" cy="144" r="1.3" fill="rgba(250,246,236,0.48)"/><circle cx="625" cy="193" r="1.5" fill="rgba(250,246,236,0.33)"/><circle cx="504" cy="49" r="1.7" fill="rgba(250,246,236,0.48)"/><circle cx="1200" cy="23" r="2.1" fill="rgba(250,246,236,0.20)"/><circle cx="280" cy="219" r="0.9" fill="rgba(250,246,236,0.30)"/><circle cx="1045" cy="673" r="2.0" fill="rgba(250,246,236,0.54)"/><circle cx="781" cy="201" r="2.7" fill="rgba(250,246,236,0.44)"/><circle cx="4" cy="732" r="2.9" fill="rgba(250,246,236,0.38)"/><circle cx="771" cy="488" r="2.5" fill="rgba(250,246,236,0.43)"/><circle cx="65" cy="485" r="2.2" fill="rgba(250,246,236,0.36)"/><circle cx="210" cy="352" r="2.3" fill="rgba(250,246,236,0.40)"/><circle cx="47" cy="267" r="2.9" fill="rgba(250,246,236,0.26)"/><circle cx="1184" cy="532" r="1.7" fill="rgba(250,246,236,0.52)"/><circle cx="849" cy="409" r="1.4" fill="rgba(250,246,236,0.17)"/><circle cx="157" cy="67" r="0.9" fill="rgba(250,246,236,0.15)"/><circle cx="424" cy="552" r="0.9" fill="rgba(250,246,236,0.21)"/><circle cx="63" cy="530" r="2.8" fill="rgba(250,246,236,0.25)"/><circle cx="889" cy="749" r="1.9" fill="rgba(250,246,236,0.39)"/><circle cx="699" cy="536" r="1.5" fill="rgba(250,246,236,0.52)"/><circle cx="299" cy="256" r="1.5" fill="rgba(250,246,236,0.40)"/><circle cx="149" cy="370" r="2.5" fill="rgba(250,246,236,0.52)"/><circle cx="572" cy="146" r="1.2" fill="rgba(250,246,236,0.45)"/><circle cx="718" cy="323" r="1.3" fill="rgba(250,246,236,0.23)"/>
</svg>