<svg xmlns="http://www.w3.org/2000/svg" width="1200" height="750" viewBox="0 0 1200 750">
  <defs>
    <linearGradient id="g" gradientTransform="rotate(156)">
      <stop offset="0%" stop-color="#7BBAD4"/>
      <stop offset="55%" stop-color="#8CC4D0"/>
      <stop offset="100%" stop-color="#3D5070"/>
    </linearGradient>
  </defs>
  <rect width="1200" height="750" fill="url(#g)"/>
  <line x1="826" y1="384" x2="909" y2="319" stroke="rgba(250,246,236,0.28)" stroke-width="1.2"/><line x1="826" y1="384" x2="402" y2="192" stroke="rgba(250,246,236,0.28)" stroke-width="1.2"/><line x1="826" y1="384" x2="898" y2="502" stroke="rgba(250,246,236,0.28)" stroke-width="1.2"/><line x1="826" y1="384" x2="864" y2="559" stroke="rgba(250,246,236,0.28)" stroke-width="1.2"/><line x1="826" y1="384" x2="386" y2="525" stroke="rgba(250,246,236,0.28)" stroke-width="1.2"/><line x1="826" y1="384" x2="586" y2="504" stroke="rgba(250,246,236,0.28)" stroke-width="1.2"/><line x1="909" y1="319" x2="402" y2="192" stroke="rgba(250,246,236,0.28)" stroke-width="1.2"/><line x1="909" y1="319" x2="898" y2="502" stroke="rgba(250,246,236,0.28)" stroke-width="1.2"/><line x1="909" y1="319" x2="864" y2="559" stroke="rgba(250,246,236,0.28)" stroke-width="1.2"/><line x1="909" y1="319" x2="386" y2="525" stroke="rgba(250,246,236,0.28)" stroke-width="1.2"/><line x1="402" y1="192" x2="898" y2="502" stroke="rgba(250,246,236,0.28)" stroke-width="1.2"/><line x1="402" y1="192" x2="864" y2="559" stroke="rgba(250,246,236,0.28)" stroke-width="1.2"/><line x1="402" y1="192" x2="586" y2="504" stroke="rgba(250,246,236,0.28)" stroke-width="1.2"/><line x1="898" y1="502" x2="864" y2="559" stroke="rgba(250,246,236,0.28)" stroke-width="1.2"/><line x1="864" y1="559" x2="386" y2="525" stroke="rgba(250,246,236,0.28)" stroke-width="1.2"/><line x1="864" y1="559" x2="586" y2="504" stroke="rgba(250,246,236,0.28)" stroke-width="1.2"/><circle cx="826" cy="384" r="11" fill="rgba(250,246,236,0.85)"/><circle cx="909" cy="319" r="6" fill="#7BBAD4"/><circle cx="402" cy="192" r="6" fill="rgba(250,246,236,0.85)"/><circle cx="898" cy="502" r="11" fill="#7BBAD4"/><circle cx="864" cy="559" r="6" fill="rgba(250,246,236,0.85)"/><circle cx="386" cy="525" r="6" fill="#7BBAD4"/><circle cx="586" cy="504" r="11" fill="rgba(250,246,236,0.85)"/>
  <circle cx="74" cy="148" r="1.5" fill="rgba(250,246,236,0.51)"/><circle cx="349" cy="588" r="2.5" fill="rgba(250,246,236,0.29)"/><circle cx="724" cy="382" r="1.4" fill="rgba(250,246,236,0.24)"/><circle cx="891" cy="384" r="1.0" fill="rgba(250,246,236,0.51)"/><circle cx="110" cy="593" r="2.9" fill="rgba(250,246,236,0.16)"/><circle cx="101" cy="226" r="0.9" fill="rgba(250,246,236,0.53)"/><circle cx="260" cy="556" r="2.4" fill="rgba(250,246,236,0.16)"/><circle cx="1168" cy="723" r="1.3" fill="rgba(250,246,236,0.50)"/><circle cx="328" cy="169" r="2.6" fill="rgba(250,246,236,0.29)"/><circle cx="864" cy="239" r="1.1" fill="rgba(250,246,236,0.17)"/><circle cx="215" cy="593" r="1.9" fill="rgba(250,246,236,0.31)"/><circle cx="1154" cy="121" r="2.4" fill="rgba(250,246,236,0.51)"/><circle cx="644" cy="349" r="2.5" fill="rgba(250,246,236,0.34)"/><circle cx="69" cy="370" r="1.2" fill="rgba(250,246,236,0.49)"/><circle cx="322" cy="686" r="1.0" fill="rgba(250,246,236,0.22)"/><circle cx="7" cy="254" r="2.7" fill="rgba(250,246,236,0.25)"/><circle cx="554" cy="584" r="1.4" fill="rgba(250,246,236,0.26)"/><circle cx="1149" cy="740" r="2.3" fill="rgba(250,246,236,0.23)"/><circle cx="978" cy="42" r="2.9" fill="rgba(250,246,236,0.48)"/><circle cx="518" cy="370" r="2.5" fill="rgba(250,246,236,0.33)"/><circle cx="953" cy="297" r="1.8" fill="rgba(250,246,236,0.40)"/><circle cx="280" cy="31" r="1.0" fill="rgba(250,246,236,0.37)"/><circle cx="282" cy="426" r="2.5" fill="rgba(250,246,236,0.53)"/><circle cx="293" cy="647" r="2.2" fill="rgba(250,246,236,0.33)"/><circle cx="507" cy="127" r="2.7" fill="rgba(250,246,236,0.25)"/><circle cx="149" cy="510" r="2.3" fill="rgba(250,246,236,0.23)"/><circle cx="959" cy="518" r="1.4" fill="rgba(250,246,236,0.41)"/><circle cx="774" cy="662" r="1.7" fill="rgba(250,246,236,0.35)"/><circle cx="1047" cy="698" r="2.0" fill="rgba(250,246,236,0.31)"/><circle cx="1145" cy="299" r="1.0" fill="rgba(250,246,236,0.19)"/><circle cx="367" cy="210" r="2.8" fill="rgba(250,246,236,0.29)"/><circle cx="997" cy="665" r="2.7" fill="rgba(250,246,236,0.39)"/><circle cx="19" cy="455" r="2.1" fill="rgba(250,246,236,0.31)"/>
</svg>