<svg xmlns="http://www.w3.org/2000/svg" width="1200" height="750" viewBox="0 0 1200 750">
  <defs>
    <linearGradient id="g" gradientTransform="rotate(148)">
      <stop offset="0%" stop-color="#3D5070"/>
      <stop offset="55%" stop-color="#7BBAD4"/>
      <stop offset="100%" stop-color="#EBEBEB"/>
    </linearGradient>
  </defs>
  <rect width="1200" height="750" fill="url(#g)"/>
  <circle cx="251" cy="162" r="144" fill="none" stroke="rgba(250,246,236,0.2)" stroke-width="1.5"/><circle cx="914" cy="435" r="344" fill="none" stroke="rgba(250,246,236,0.2)" stroke-width="1.5"/><circle cx="803" cy="166" r="232" fill="none" stroke="rgba(250,246,236,0.2)" stroke-width="1.5"/><polygon points="636,404 478,517 350,500 278,361 386,259 540,298" fill="#3D5070" opacity="0.35" stroke="rgba(250,246,236,0.5)" stroke-width="1.4"/>
  <circle cx="237" cy="722" r="1.6" fill="rgba(250,246,236,0.40)"/><circle cx="785" cy="749" r="1.0" fill="rgba(250,246,236,0.37)"/><circle cx="596" cy="724" r="1.9" fill="rgba(250,246,236,0.36)"/><circle cx="406" cy="561" r="1.9" fill="rgba(250,246,236,0.51)"/><circle cx="651" cy="252" r="1.8" fill="rgba(250,246,236,0.51)"/><circle cx="289" cy="494" r="2.0" fill="rgba(250,246,236,0.33)"/><circle cx="887" cy="565" r="1.2" fill="rgba(250,246,236,0.43)"/><circle cx="1061" cy="165" r="2.3" fill="rgba(250,246,236,0.32)"/><circle cx="1190" cy="174" r="1.8" fill="rgba(250,246,236,0.28)"/><circle cx="68" cy="749" r="1.0" fill="rgba(250,246,236,0.48)"/><circle cx="1095" cy="409" r="1.0" fill="rgba(250,246,236,0.54)"/><circle cx="472" cy="607" r="2.4" fill="rgba(250,246,236,0.38)"/><circle cx="478" cy="540" r="1.6" fill="rgba(250,246,236,0.33)"/><circle cx="896" cy="704" r="2.3" fill="rgba(250,246,236,0.51)"/><circle cx="280" cy="209" r="1.9" fill="rgba(250,246,236,0.51)"/><circle cx="631" cy="561" r="1.6" fill="rgba(250,246,236,0.49)"/><circle cx="851" cy="21" r="1.0" fill="rgba(250,246,236,0.44)"/><circle cx="1061" cy="276" r="2.8" fill="rgba(250,246,236,0.52)"/><circle cx="422" cy="152" r="2.4" fill="rgba(250,246,236,0.25)"/><circle cx="58" cy="384" r="1.9" fill="rgba(250,246,236,0.24)"/><circle cx="786" cy="666" r="1.5" fill="rgba(250,246,236,0.20)"/><circle cx="638" cy="623" r="2.8" fill="rgba(250,246,236,0.40)"/><circle cx="33" cy="469" r="1.0" fill="rgba(250,246,236,0.17)"/><circle cx="794" cy="531" r="2.8" fill="rgba(250,246,236,0.52)"/>
</svg>