<svg xmlns="http://www.w3.org/2000/svg" width="1200" height="750" viewBox="0 0 1200 750">
  <defs>
    <linearGradient id="g" gradientTransform="rotate(158)">
      <stop offset="0%" stop-color="#9B8CC8"/>
      <stop offset="55%" stop-color="#C8A4C4"/>
      <stop offset="100%" stop-color="#1E2340"/>
    </linearGradient>
  </defs>
  <rect width="1200" height="750" fill="url(#g)"/>
  <circle cx="605" cy="251" r="86" fill="none" stroke="rgba(250,246,236,0.2)" stroke-width="1.5"/><circle cx="249" cy="400" r="353" fill="none" stroke="rgba(250,246,236,0.2)" stroke-width="1.5"/><circle cx="451" cy="315" r="224" fill="none" stroke="rgba(250,246,236,0.2)" stroke-width="1.5"/><polygon points="667,442 552,528 457,474 494,372 611,338" fill="#9B8CC8" opacity="0.35" stroke="rgba(250,246,236,0.5)" stroke-width="1.4"/>
  <circle cx="951" cy="641" r="1.9" fill="rgba(250,246,236,0.23)"/><circle cx="192" cy="521" r="2.2" fill="rgba(250,246,236,0.46)"/><circle cx="355" cy="464" r="2.4" fill="rgba(250,246,236,0.49)"/><circle cx="1060" cy="580" r="2.2" fill="rgba(250,246,236,0.29)"/><circle cx="199" cy="306" r="2.5" fill="rgba(250,246,236,0.17)"/><circle cx="169" cy="495" r="1.0" fill="rgba(250,246,236,0.45)"/><circle cx="490" cy="152" r="2.9" fill="rgba(250,246,236,0.47)"/><circle cx="1155" cy="640" r="1.8" fill="rgba(250,246,236,0.47)"/><circle cx="484" cy="422" r="1.7" fill="rgba(250,246,236,0.18)"/><circle cx="49" cy="641" r="0.9" fill="rgba(250,246,236,0.24)"/><circle cx="1112" cy="194" r="1.7" fill="rgba(250,246,236,0.54)"/><circle cx="97" cy="228" r="2.1" fill="rgba(250,246,236,0.28)"/><circle cx="910" cy="415" r="0.8" fill="rgba(250,246,236,0.30)"/><circle cx="295" cy="243" r="0.9" fill="rgba(250,246,236,0.29)"/><circle cx="423" cy="683" r="1.2" fill="rgba(250,246,236,0.24)"/><circle cx="103" cy="725" r="2.8" fill="rgba(250,246,236,0.40)"/><circle cx="143" cy="476" r="1.2" fill="rgba(250,246,236,0.42)"/><circle cx="412" cy="147" r="2.2" fill="rgba(250,246,236,0.25)"/><circle cx="581" cy="64" r="1.0" fill="rgba(250,246,236,0.22)"/><circle cx="1029" cy="71" r="1.0" fill="rgba(250,246,236,0.38)"/><circle cx="171" cy="412" r="2.3" fill="rgba(250,246,236,0.18)"/><circle cx="576" cy="256" r="1.0" fill="rgba(250,246,236,0.37)"/><circle cx="83" cy="307" r="1.5" fill="rgba(250,246,236,0.21)"/><circle cx="703" cy="167" r="1.1" fill="rgba(250,246,236,0.23)"/><circle cx="497" cy="490" r="1.8" fill="rgba(250,246,236,0.26)"/><circle cx="353" cy="185" r="2.4" fill="rgba(250,246,236,0.33)"/><circle cx="358" cy="22" r="2.0" fill="rgba(250,246,236,0.43)"/><circle cx="911" cy="304" r="1.0" fill="rgba(250,246,236,0.39)"/><circle cx="1196" cy="363" r="2.6" fill="rgba(250,246,236,0.25)"/><circle cx="652" cy="363" r="2.6" fill="rgba(250,246,236,0.37)"/><circle cx="1050" cy="660" r="2.6" fill="rgba(250,246,236,0.35)"/><circle cx="506" cy="547" r="2.9" fill="rgba(250,246,236,0.30)"/><circle cx="65" cy="138" r="3.0" fill="rgba(250,246,236,0.31)"/><circle cx="363" cy="320" r="0.9" fill="rgba(250,246,236,0.30)"/><circle cx="579" cy="525" r="2.1" fill="rgba(250,246,236,0.32)"/><circle cx="804" cy="73" r="2.3" fill="rgba(250,246,236,0.45)"/>
</svg>