<svg xmlns="http://www.w3.org/2000/svg" width="1200" height="750" viewBox="0 0 1200 750">
  <defs>
    <linearGradient id="g" gradientTransform="rotate(168)">
      <stop offset="0%" stop-color="#1E2340"/>
      <stop offset="55%" stop-color="#3D5070"/>
      <stop offset="100%" stop-color="#9B8CC8"/>
    </linearGradient>
  </defs>
  <rect width="1200" height="750" fill="url(#g)"/>
  <rect x="290" y="452" width="70" height="163" fill="rgba(250,246,236,0.14)" opacity="0.9"/><rect x="290" y="442" width="70" height="6" fill="rgba(250,246,236,0.5)"/><rect x="400" y="403" width="70" height="212" fill="#1E2340" opacity="0.9"/><rect x="400" y="393" width="70" height="6" fill="rgba(250,246,236,0.5)"/><rect x="510" y="381" width="70" height="234" fill="rgba(250,246,236,0.14)" opacity="0.9"/><rect x="510" y="371" width="70" height="6" fill="rgba(250,246,236,0.5)"/><rect x="620" y="238" width="70" height="377" fill="#1E2340" opacity="0.9"/><rect x="620" y="228" width="70" height="6" fill="rgba(250,246,236,0.5)"/><rect x="730" y="466" width="70" height="149" fill="rgba(250,246,236,0.14)" opacity="0.9"/><rect x="730" y="456" width="70" height="6" fill="rgba(250,246,236,0.5)"/><rect x="840" y="316" width="70" height="299" fill="#1E2340" opacity="0.9"/><rect x="840" y="306" width="70" height="6" fill="rgba(250,246,236,0.5)"/>
  <circle cx="695" cy="217" r="2.7" fill="rgba(250,246,236,0.35)"/><circle cx="709" cy="523" r="1.0" fill="rgba(250,246,236,0.50)"/><circle cx="270" cy="491" r="2.0" fill="rgba(250,246,236,0.44)"/><circle cx="1118" cy="360" r="2.8" fill="rgba(250,246,236,0.36)"/><circle cx="1188" cy="489" r="2.1" fill="rgba(250,246,236,0.53)"/><circle cx="339" cy="594" r="1.2" fill="rgba(250,246,236,0.27)"/><circle cx="651" cy="382" r="1.7" fill="rgba(250,246,236,0.15)"/><circle cx="919" cy="74" r="1.0" fill="rgba(250,246,236,0.18)"/><circle cx="598" cy="660" r="2.9" fill="rgba(250,246,236,0.22)"/><circle cx="526" cy="425" r="0.8" fill="rgba(250,246,236,0.47)"/><circle cx="146" cy="143" r="1.1" fill="rgba(250,246,236,0.24)"/><circle cx="719" cy="78" r="1.4" fill="rgba(250,246,236,0.27)"/><circle cx="964" cy="98" r="2.8" fill="rgba(250,246,236,0.26)"/><circle cx="885" cy="80" r="2.9" fill="rgba(250,246,236,0.34)"/><circle cx="610" cy="708" r="3.0" fill="rgba(250,246,236,0.39)"/><circle cx="1143" cy="103" r="1.5" fill="rgba(250,246,236,0.30)"/><circle cx="37" cy="299" r="1.4" fill="rgba(250,246,236,0.31)"/><circle cx="908" cy="26" r="2.1" fill="rgba(250,246,236,0.51)"/><circle cx="95" cy="81" r="2.1" fill="rgba(250,246,236,0.53)"/><circle cx="401" cy="627" r="1.6" fill="rgba(250,246,236,0.30)"/><circle cx="954" cy="699" r="1.7" fill="rgba(250,246,236,0.34)"/><circle cx="475" cy="568" r="1.3" fill="rgba(250,246,236,0.36)"/><circle cx="155" cy="640" r="1.6" fill="rgba(250,246,236,0.45)"/><circle cx="962" cy="694" r="2.6" fill="rgba(250,246,236,0.44)"/><circle cx="30" cy="108" r="1.0" fill="rgba(250,246,236,0.27)"/><circle cx="150" cy="522" r="2.2" fill="rgba(250,246,236,0.15)"/><circle cx="1115" cy="496" r="1.9" fill="rgba(250,246,236,0.48)"/><circle cx="201" cy="182" r="1.0" fill="rgba(250,246,236,0.46)"/><circle cx="1086" cy="86" r="1.2" fill="rgba(250,246,236,0.42)"/><circle cx="438" cy="496" r="2.2" fill="rgba(250,246,236,0.43)"/><circle cx="434" cy="76" r="1.5" fill="rgba(250,246,236,0.18)"/><circle cx="975" cy="609" r="0.9" fill="rgba(250,246,236,0.18)"/><circle cx="317" cy="529" r="1.3" fill="rgba(250,246,236,0.17)"/><circle cx="340" cy="729" r="2.5" fill="rgba(250,246,236,0.32)"/><circle cx="533" cy="131" r="1.0" fill="rgba(250,246,236,0.29)"/><circle cx="186" cy="373" r="2.3" fill="rgba(250,246,236,0.53)"/><circle cx="694" cy="105" r="2.6" fill="rgba(250,246,236,0.36)"/><circle cx="766" cy="351" r="0.9" fill="rgba(250,246,236,0.46)"/><circle cx="989" cy="732" r="1.8" fill="rgba(250,246,236,0.25)"/><circle cx="73" cy="630" r="1.3" fill="rgba(250,246,236,0.53)"/>
</svg>