<svg xmlns="http://www.w3.org/2000/svg" width="1200" height="750" viewBox="0 0 1200 750">
  <defs>
    <linearGradient id="g" gradientTransform="rotate(207)">
      <stop offset="0%" stop-color="#9B8CC8"/>
      <stop offset="55%" stop-color="#C8A4C4"/>
      <stop offset="100%" stop-color="#1E2340"/>
    </linearGradient>
  </defs>
  <rect width="1200" height="750" fill="url(#g)"/>
  <polygon points="590,154 408,467 772,467" transform="rotate(47 590 363)" fill="rgba(250,246,236,0.1)" opacity="0.55" stroke="rgba(250,246,236,0.4)" stroke-width="1.2"/><polygon points="516,64 250,523 783,523" transform="rotate(23 516 370)" fill="#9B8CC8" opacity="0.55" stroke="rgba(250,246,236,0.4)" stroke-width="1.2"/><polygon points="545,81 267,561 823,561" transform="rotate(35 545 401)" fill="rgba(250,246,236,0.1)" opacity="0.55" stroke="rgba(250,246,236,0.4)" stroke-width="1.2"/>
  <circle cx="207" cy="720" r="1.5" fill="rgba(250,246,236,0.50)"/><circle cx="721" cy="568" r="2.4" fill="rgba(250,246,236,0.50)"/><circle cx="17" cy="622" r="0.8" fill="rgba(250,246,236,0.30)"/><circle cx="513" cy="683" r="2.2" fill="rgba(250,246,236,0.22)"/><circle cx="1183" cy="69" r="2.2" fill="rgba(250,246,236,0.20)"/><circle cx="1162" cy="651" r="2.3" fill="rgba(250,246,236,0.46)"/><circle cx="611" cy="271" r="2.5" fill="rgba(250,246,236,0.18)"/><circle cx="43" cy="152" r="2.3" fill="rgba(250,246,236,0.29)"/><circle cx="376" cy="625" r="2.9" fill="rgba(250,246,236,0.15)"/><circle cx="1030" cy="543" r="1.9" fill="rgba(250,246,236,0.28)"/><circle cx="425" cy="531" r="0.9" fill="rgba(250,246,236,0.44)"/><circle cx="93" cy="256" r="2.2" fill="rgba(250,246,236,0.37)"/><circle cx="421" cy="678" r="2.5" fill="rgba(250,246,236,0.54)"/><circle cx="958" cy="359" r="2.0" fill="rgba(250,246,236,0.46)"/><circle cx="892" cy="4" r="1.5" fill="rgba(250,246,236,0.25)"/><circle cx="854" cy="46" r="2.1" fill="rgba(250,246,236,0.35)"/><circle cx="508" cy="546" r="0.9" fill="rgba(250,246,236,0.28)"/><circle cx="94" cy="737" r="2.3" fill="rgba(250,246,236,0.37)"/><circle cx="650" cy="323" r="1.3" fill="rgba(250,246,236,0.46)"/><circle cx="804" cy="519" r="1.0" fill="rgba(250,246,236,0.48)"/><circle cx="978" cy="355" r="1.3" fill="rgba(250,246,236,0.49)"/><circle cx="783" cy="91" r="1.4" fill="rgba(250,246,236,0.21)"/><circle cx="466" cy="425" r="2.1" fill="rgba(250,246,236,0.54)"/><circle cx="685" cy="747" r="1.8" fill="rgba(250,246,236,0.24)"/><circle cx="479" cy="144" r="1.2" fill="rgba(250,246,236,0.53)"/><circle cx="329" cy="260" r="2.1" fill="rgba(250,246,236,0.29)"/><circle cx="746" cy="695" r="0.9" fill="rgba(250,246,236,0.37)"/><circle cx="337" cy="386" r="2.7" fill="rgba(250,246,236,0.35)"/><circle cx="1095" cy="449" r="2.6" fill="rgba(250,246,236,0.36)"/><circle cx="1145" cy="586" r="2.1" fill="rgba(250,246,236,0.23)"/><circle cx="445" cy="526" r="1.1" fill="rgba(250,246,236,0.16)"/><circle cx="361" cy="73" r="2.9" fill="rgba(250,246,236,0.26)"/><circle cx="295" cy="384" r="1.1" fill="rgba(250,246,236,0.23)"/><circle cx="167" cy="202" r="1.3" fill="rgba(250,246,236,0.53)"/><circle cx="522" cy="568" r="2.5" fill="rgba(250,246,236,0.27)"/><circle cx="688" cy="25" r="2.4" fill="rgba(250,246,236,0.28)"/><circle cx="76" cy="318" r="1.8" fill="rgba(250,246,236,0.48)"/><circle cx="624" cy="713" r="1.3" fill="rgba(250,246,236,0.43)"/><circle cx="764" cy="157" r="2.6" fill="rgba(250,246,236,0.50)"/>
</svg>